<mxfile host="app.diagrams.net" agent="Mozilla/5.0 (Windows NT 10.0; Win64; x64) AppleWebKit/537.36 (KHTML, like Gecko) Chrome/131.0.0.0 Safari/537.36 Edg/131.0.0.0" version="25.0.3" pages="2">
  <diagram name="Page-1" id="KZL_Q3iuqXwxdbJhdV-s">
    <mxGraphModel dx="1574" dy="719" grid="1" gridSize="10" guides="1" tooltips="1" connect="1" arrows="1" fold="1" page="1" pageScale="1" pageWidth="850" pageHeight="1100" math="0" shadow="0">
      <root>
        <mxCell id="0" />
        <mxCell id="1" parent="0" />
        <mxCell id="hxpdlsdt68PjaTI5VVJk-139" value="View Profile" style="swimlane;childLayout=stackLayout;resizeParent=1;resizeParentMax=0;startSize=20;html=1;" parent="1" vertex="1">
          <mxGeometry x="20" y="20" width="360" height="480" as="geometry" />
        </mxCell>
        <mxCell id="hxpdlsdt68PjaTI5VVJk-140" value="User" style="swimlane;startSize=20;html=1;" parent="hxpdlsdt68PjaTI5VVJk-139" vertex="1">
          <mxGeometry y="20" width="200" height="460" as="geometry" />
        </mxCell>
        <mxCell id="19AYfMJwUUPp3SPWDgAh-180" value="" style="edgeStyle=orthogonalEdgeStyle;rounded=0;orthogonalLoop=1;jettySize=auto;html=1;" parent="hxpdlsdt68PjaTI5VVJk-140" source="hxpdlsdt68PjaTI5VVJk-40" target="hxpdlsdt68PjaTI5VVJk-38" edge="1">
          <mxGeometry relative="1" as="geometry" />
        </mxCell>
        <mxCell id="hxpdlsdt68PjaTI5VVJk-38" value="Login" style="rounded=1;whiteSpace=wrap;html=1;arcSize=40;fontColor=#000000;fillColor=#FFFFFF;strokeColor=#080000;" parent="hxpdlsdt68PjaTI5VVJk-140" vertex="1">
          <mxGeometry x="24.999999999999545" y="130" width="120" height="40" as="geometry" />
        </mxCell>
        <mxCell id="hxpdlsdt68PjaTI5VVJk-40" value="Select View Profile" style="rounded=1;whiteSpace=wrap;html=1;arcSize=40;fontColor=#000000;fillColor=#FFFFFF;strokeColor=#0A0000;" parent="hxpdlsdt68PjaTI5VVJk-140" vertex="1">
          <mxGeometry x="24.999999999999545" y="215" width="120" height="40" as="geometry" />
        </mxCell>
        <mxCell id="19AYfMJwUUPp3SPWDgAh-179" value="" style="edgeStyle=orthogonalEdgeStyle;rounded=0;orthogonalLoop=1;jettySize=auto;html=1;" parent="hxpdlsdt68PjaTI5VVJk-140" source="hxpdlsdt68PjaTI5VVJk-54" target="hxpdlsdt68PjaTI5VVJk-38" edge="1">
          <mxGeometry relative="1" as="geometry" />
        </mxCell>
        <mxCell id="hxpdlsdt68PjaTI5VVJk-54" value="" style="ellipse;html=1;shape=startState;fillColor=#000000;strokeColor=#080000;" parent="hxpdlsdt68PjaTI5VVJk-140" vertex="1">
          <mxGeometry x="69.99999999999955" y="35" width="30" height="30" as="geometry" />
        </mxCell>
        <mxCell id="hxpdlsdt68PjaTI5VVJk-156" value="" style="edgeStyle=orthogonalEdgeStyle;rounded=0;orthogonalLoop=1;jettySize=auto;html=1;" parent="hxpdlsdt68PjaTI5VVJk-140" source="hxpdlsdt68PjaTI5VVJk-147" target="hxpdlsdt68PjaTI5VVJk-155" edge="1">
          <mxGeometry relative="1" as="geometry" />
        </mxCell>
        <mxCell id="hxpdlsdt68PjaTI5VVJk-147" value="View Profile Details" style="whiteSpace=wrap;html=1;fillColor=#FFFFFF;strokeColor=#0A0000;fontColor=#000000;rounded=1;arcSize=40;" parent="hxpdlsdt68PjaTI5VVJk-140" vertex="1">
          <mxGeometry x="25" y="300" width="120" height="60" as="geometry" />
        </mxCell>
        <mxCell id="hxpdlsdt68PjaTI5VVJk-155" value="" style="ellipse;html=1;shape=endState;fillColor=#000000;strokeColor=#080000;" parent="hxpdlsdt68PjaTI5VVJk-140" vertex="1">
          <mxGeometry x="70" y="410" width="30" height="30" as="geometry" />
        </mxCell>
        <mxCell id="hxpdlsdt68PjaTI5VVJk-141" value="System" style="swimlane;startSize=20;html=1;" parent="hxpdlsdt68PjaTI5VVJk-139" vertex="1">
          <mxGeometry x="200" y="20" width="160" height="460" as="geometry" />
        </mxCell>
        <mxCell id="hxpdlsdt68PjaTI5VVJk-146" value="" style="edgeStyle=orthogonalEdgeStyle;rounded=0;orthogonalLoop=1;jettySize=auto;html=1;strokeColor=#0A0000;fillColor=#FFFFFF;" parent="hxpdlsdt68PjaTI5VVJk-141" source="hxpdlsdt68PjaTI5VVJk-143" target="hxpdlsdt68PjaTI5VVJk-145" edge="1">
          <mxGeometry relative="1" as="geometry" />
        </mxCell>
        <mxCell id="hxpdlsdt68PjaTI5VVJk-143" value="Retrive Profile Details" style="rounded=1;whiteSpace=wrap;html=1;arcSize=40;fontColor=#000000;fillColor=#FFFFFF;strokeColor=#0A0000;" parent="hxpdlsdt68PjaTI5VVJk-141" vertex="1">
          <mxGeometry x="25" y="215" width="120" height="40" as="geometry" />
        </mxCell>
        <mxCell id="hxpdlsdt68PjaTI5VVJk-145" value="Display Profile Details" style="rounded=1;whiteSpace=wrap;html=1;arcSize=40;fontColor=#000000;fillColor=#FFFFFF;strokeColor=#0A0000;" parent="hxpdlsdt68PjaTI5VVJk-141" vertex="1">
          <mxGeometry x="25" y="335" width="120" height="40" as="geometry" />
        </mxCell>
        <mxCell id="hxpdlsdt68PjaTI5VVJk-148" value="" style="edgeStyle=orthogonalEdgeStyle;rounded=0;orthogonalLoop=1;jettySize=auto;html=1;strokeColor=#0A0000;fillColor=#FFFFFF;" parent="hxpdlsdt68PjaTI5VVJk-139" source="hxpdlsdt68PjaTI5VVJk-145" target="hxpdlsdt68PjaTI5VVJk-147" edge="1">
          <mxGeometry relative="1" as="geometry" />
        </mxCell>
        <mxCell id="hxpdlsdt68PjaTI5VVJk-151" value="" style="edgeStyle=orthogonalEdgeStyle;rounded=0;orthogonalLoop=1;jettySize=auto;html=1;strokeColor=#0A0000;fillColor=#FFFFFF;" parent="hxpdlsdt68PjaTI5VVJk-139" source="hxpdlsdt68PjaTI5VVJk-40" target="hxpdlsdt68PjaTI5VVJk-143" edge="1">
          <mxGeometry relative="1" as="geometry" />
        </mxCell>
        <mxCell id="hxpdlsdt68PjaTI5VVJk-157" value="Login" style="rounded=1;whiteSpace=wrap;html=1;arcSize=40;fontColor=#000000;fillColor=#FFFFFF;strokeColor=#080000;" parent="1" vertex="1">
          <mxGeometry x="449.99999999999955" y="160" width="120" height="40" as="geometry" />
        </mxCell>
        <mxCell id="hxpdlsdt68PjaTI5VVJk-158" value="" style="edgeStyle=orthogonalEdgeStyle;html=1;verticalAlign=bottom;endArrow=open;endSize=8;strokeColor=#0A0000;rounded=0;" parent="1" source="hxpdlsdt68PjaTI5VVJk-157" edge="1">
          <mxGeometry relative="1" as="geometry">
            <mxPoint x="509.99999999999955" y="250" as="targetPoint" />
          </mxGeometry>
        </mxCell>
        <mxCell id="hxpdlsdt68PjaTI5VVJk-159" value="Select View Courses" style="rounded=1;whiteSpace=wrap;html=1;arcSize=40;fontColor=#000000;fillColor=#FFFFFF;strokeColor=#0A0000;" parent="1" vertex="1">
          <mxGeometry x="449.99999999999955" y="250" width="120" height="40" as="geometry" />
        </mxCell>
        <mxCell id="hxpdlsdt68PjaTI5VVJk-160" value="" style="ellipse;html=1;shape=startState;fillColor=#000000;strokeColor=#080000;" parent="1" vertex="1">
          <mxGeometry x="494.99999999999955" y="70" width="30" height="30" as="geometry" />
        </mxCell>
        <mxCell id="hxpdlsdt68PjaTI5VVJk-161" value="" style="edgeStyle=orthogonalEdgeStyle;html=1;verticalAlign=bottom;endArrow=open;endSize=8;strokeColor=#0A0000;rounded=0;" parent="1" source="hxpdlsdt68PjaTI5VVJk-160" edge="1">
          <mxGeometry relative="1" as="geometry">
            <mxPoint x="509.99999999999955" y="160" as="targetPoint" />
          </mxGeometry>
        </mxCell>
        <mxCell id="hxpdlsdt68PjaTI5VVJk-165" value="" style="edgeStyle=orthogonalEdgeStyle;rounded=0;orthogonalLoop=1;jettySize=auto;html=1;strokeColor=#0A0000;fillColor=#FFFFFF;" parent="1" source="hxpdlsdt68PjaTI5VVJk-166" target="hxpdlsdt68PjaTI5VVJk-167" edge="1">
          <mxGeometry relative="1" as="geometry" />
        </mxCell>
        <mxCell id="hxpdlsdt68PjaTI5VVJk-166" value="Retrive Course Details" style="rounded=1;whiteSpace=wrap;html=1;arcSize=40;fontColor=#000000;fillColor=#FFFFFF;strokeColor=#0A0000;" parent="1" vertex="1">
          <mxGeometry x="650" y="250" width="120" height="40" as="geometry" />
        </mxCell>
        <mxCell id="hxpdlsdt68PjaTI5VVJk-169" value="" style="edgeStyle=orthogonalEdgeStyle;rounded=0;orthogonalLoop=1;jettySize=auto;html=1;strokeColor=#0A0000;fillColor=#FFFFFF;" parent="1" source="hxpdlsdt68PjaTI5VVJk-159" target="hxpdlsdt68PjaTI5VVJk-166" edge="1">
          <mxGeometry relative="1" as="geometry" />
        </mxCell>
        <mxCell id="hxpdlsdt68PjaTI5VVJk-170" value="View Course" style="swimlane;childLayout=stackLayout;resizeParent=1;resizeParentMax=0;startSize=20;html=1;" parent="1" vertex="1">
          <mxGeometry x="440" y="15" width="360" height="470" as="geometry" />
        </mxCell>
        <mxCell id="hxpdlsdt68PjaTI5VVJk-171" value="User" style="swimlane;startSize=20;html=1;" parent="hxpdlsdt68PjaTI5VVJk-170" vertex="1">
          <mxGeometry y="20" width="170" height="450" as="geometry" />
        </mxCell>
        <mxCell id="hxpdlsdt68PjaTI5VVJk-163" value="View Profile Details" style="whiteSpace=wrap;html=1;fillColor=#FFFFFF;strokeColor=#0A0000;fontColor=#000000;rounded=1;arcSize=40;" parent="hxpdlsdt68PjaTI5VVJk-171" vertex="1">
          <mxGeometry x="10" y="295" width="120" height="60" as="geometry" />
        </mxCell>
        <mxCell id="hxpdlsdt68PjaTI5VVJk-164" value="" style="ellipse;html=1;shape=endState;fillColor=#000000;strokeColor=#080000;" parent="hxpdlsdt68PjaTI5VVJk-171" vertex="1">
          <mxGeometry x="55" y="405" width="30" height="30" as="geometry" />
        </mxCell>
        <mxCell id="hxpdlsdt68PjaTI5VVJk-162" value="" style="edgeStyle=orthogonalEdgeStyle;rounded=0;orthogonalLoop=1;jettySize=auto;html=1;" parent="hxpdlsdt68PjaTI5VVJk-171" source="hxpdlsdt68PjaTI5VVJk-163" target="hxpdlsdt68PjaTI5VVJk-164" edge="1">
          <mxGeometry relative="1" as="geometry" />
        </mxCell>
        <mxCell id="hxpdlsdt68PjaTI5VVJk-172" value="System" style="swimlane;startSize=20;html=1;" parent="hxpdlsdt68PjaTI5VVJk-170" vertex="1">
          <mxGeometry x="170" y="20" width="190" height="450" as="geometry" />
        </mxCell>
        <mxCell id="hxpdlsdt68PjaTI5VVJk-167" value="Display Course Details" style="rounded=1;whiteSpace=wrap;html=1;arcSize=40;fontColor=#000000;fillColor=#FFFFFF;strokeColor=#0A0000;" parent="hxpdlsdt68PjaTI5VVJk-172" vertex="1">
          <mxGeometry x="40" y="315" width="120" height="40" as="geometry" />
        </mxCell>
        <mxCell id="hxpdlsdt68PjaTI5VVJk-168" value="" style="edgeStyle=orthogonalEdgeStyle;rounded=0;orthogonalLoop=1;jettySize=auto;html=1;strokeColor=#0A0000;fillColor=#FFFFFF;" parent="hxpdlsdt68PjaTI5VVJk-170" source="hxpdlsdt68PjaTI5VVJk-167" target="hxpdlsdt68PjaTI5VVJk-163" edge="1">
          <mxGeometry relative="1" as="geometry">
            <Array as="points">
              <mxPoint x="170" y="355" />
              <mxPoint x="170" y="345" />
            </Array>
          </mxGeometry>
        </mxCell>
        <mxCell id="hxpdlsdt68PjaTI5VVJk-175" value="View Calender" style="swimlane;childLayout=stackLayout;resizeParent=1;resizeParentMax=0;startSize=20;html=1;" parent="1" vertex="1">
          <mxGeometry x="20.000000000000455" y="530" width="360" height="520" as="geometry" />
        </mxCell>
        <mxCell id="hxpdlsdt68PjaTI5VVJk-176" value="Student" style="swimlane;startSize=20;html=1;" parent="hxpdlsdt68PjaTI5VVJk-175" vertex="1">
          <mxGeometry y="20" width="180" height="500" as="geometry" />
        </mxCell>
        <mxCell id="hxpdlsdt68PjaTI5VVJk-50" value="" style="ellipse;html=1;shape=startState;fillColor=#000000;strokeColor=#000000;" parent="hxpdlsdt68PjaTI5VVJk-176" vertex="1">
          <mxGeometry x="74.99999999999955" y="40" width="30" height="30" as="geometry" />
        </mxCell>
        <mxCell id="hxpdlsdt68PjaTI5VVJk-51" value="" style="edgeStyle=orthogonalEdgeStyle;html=1;verticalAlign=bottom;endArrow=open;endSize=8;strokeColor=#140000;rounded=0;" parent="hxpdlsdt68PjaTI5VVJk-176" source="hxpdlsdt68PjaTI5VVJk-50" edge="1">
          <mxGeometry relative="1" as="geometry">
            <mxPoint x="89.99999999999955" y="130" as="targetPoint" />
          </mxGeometry>
        </mxCell>
        <mxCell id="hxpdlsdt68PjaTI5VVJk-52" value="Login" style="rounded=1;whiteSpace=wrap;html=1;arcSize=40;fontColor=#000000;fillColor=#FFFFFF;strokeColor=#140000;" parent="hxpdlsdt68PjaTI5VVJk-176" vertex="1">
          <mxGeometry x="29.999999999999545" y="125" width="120" height="40" as="geometry" />
        </mxCell>
        <mxCell id="hxpdlsdt68PjaTI5VVJk-53" value="" style="edgeStyle=orthogonalEdgeStyle;html=1;verticalAlign=bottom;endArrow=open;endSize=8;strokeColor=#140000;rounded=0;" parent="hxpdlsdt68PjaTI5VVJk-176" source="hxpdlsdt68PjaTI5VVJk-52" edge="1">
          <mxGeometry relative="1" as="geometry">
            <mxPoint x="89.99999999999955" y="225" as="targetPoint" />
          </mxGeometry>
        </mxCell>
        <mxCell id="hxpdlsdt68PjaTI5VVJk-56" value="Select View Calender" style="rounded=1;whiteSpace=wrap;html=1;arcSize=40;fontColor=#000000;fillColor=#FFFFFF;strokeColor=#140000;" parent="hxpdlsdt68PjaTI5VVJk-176" vertex="1">
          <mxGeometry x="29.999999999999545" y="225" width="120" height="40" as="geometry" />
        </mxCell>
        <mxCell id="hxpdlsdt68PjaTI5VVJk-63" value="Display Profile Details" style="rounded=1;whiteSpace=wrap;html=1;arcSize=40;fontColor=#000000;fillColor=#FFFFFF;strokeColor=#0A0000;" parent="hxpdlsdt68PjaTI5VVJk-176" vertex="1">
          <mxGeometry x="29.999999999999545" y="360" width="120" height="40" as="geometry" />
        </mxCell>
        <mxCell id="hxpdlsdt68PjaTI5VVJk-179" value="" style="edgeStyle=orthogonalEdgeStyle;html=1;verticalAlign=bottom;endArrow=open;endSize=8;strokeColor=#080000;rounded=0;fillColor=#FFFFFF;" parent="hxpdlsdt68PjaTI5VVJk-176" source="hxpdlsdt68PjaTI5VVJk-63" target="hxpdlsdt68PjaTI5VVJk-66" edge="1">
          <mxGeometry relative="1" as="geometry">
            <mxPoint x="110" y="1055" as="targetPoint" />
            <mxPoint x="110.00000000000045" y="995" as="sourcePoint" />
          </mxGeometry>
        </mxCell>
        <mxCell id="hxpdlsdt68PjaTI5VVJk-66" value="" style="ellipse;html=1;shape=endState;fillColor=#000000;strokeColor=#0A0000;" parent="hxpdlsdt68PjaTI5VVJk-176" vertex="1">
          <mxGeometry x="74.99999999999955" y="450" width="30" height="30" as="geometry" />
        </mxCell>
        <mxCell id="hxpdlsdt68PjaTI5VVJk-177" value="System" style="swimlane;startSize=20;html=1;" parent="hxpdlsdt68PjaTI5VVJk-175" vertex="1">
          <mxGeometry x="180" y="20" width="180" height="500" as="geometry" />
        </mxCell>
        <mxCell id="hxpdlsdt68PjaTI5VVJk-186" value="" style="edgeStyle=orthogonalEdgeStyle;rounded=0;orthogonalLoop=1;jettySize=auto;html=1;" parent="hxpdlsdt68PjaTI5VVJk-177" source="hxpdlsdt68PjaTI5VVJk-182" target="hxpdlsdt68PjaTI5VVJk-185" edge="1">
          <mxGeometry relative="1" as="geometry" />
        </mxCell>
        <mxCell id="hxpdlsdt68PjaTI5VVJk-182" value="Retrive&amp;nbsp;&lt;div&gt;Calender Details&lt;/div&gt;" style="whiteSpace=wrap;html=1;fillColor=#FFFFFF;strokeColor=#140000;fontColor=#000000;rounded=1;arcSize=40;" parent="hxpdlsdt68PjaTI5VVJk-177" vertex="1">
          <mxGeometry x="49.999999999999545" y="215" width="120" height="60" as="geometry" />
        </mxCell>
        <mxCell id="hxpdlsdt68PjaTI5VVJk-185" value="Display&amp;nbsp;&lt;div&gt;Calender Details&lt;/div&gt;" style="whiteSpace=wrap;html=1;fillColor=#FFFFFF;strokeColor=#140000;fontColor=#000000;rounded=1;arcSize=40;" parent="hxpdlsdt68PjaTI5VVJk-177" vertex="1">
          <mxGeometry x="49.999999999999545" y="355" width="120" height="60" as="geometry" />
        </mxCell>
        <mxCell id="hxpdlsdt68PjaTI5VVJk-183" value="" style="edgeStyle=orthogonalEdgeStyle;rounded=0;orthogonalLoop=1;jettySize=auto;html=1;" parent="hxpdlsdt68PjaTI5VVJk-175" source="hxpdlsdt68PjaTI5VVJk-56" target="hxpdlsdt68PjaTI5VVJk-182" edge="1">
          <mxGeometry relative="1" as="geometry" />
        </mxCell>
        <mxCell id="hxpdlsdt68PjaTI5VVJk-188" value="" style="edgeStyle=orthogonalEdgeStyle;rounded=0;orthogonalLoop=1;jettySize=auto;html=1;" parent="hxpdlsdt68PjaTI5VVJk-175" source="hxpdlsdt68PjaTI5VVJk-185" target="hxpdlsdt68PjaTI5VVJk-63" edge="1">
          <mxGeometry relative="1" as="geometry" />
        </mxCell>
        <mxCell id="hxpdlsdt68PjaTI5VVJk-189" value="View Notifications" style="swimlane;childLayout=stackLayout;resizeParent=1;resizeParentMax=0;startSize=20;html=1;" parent="1" vertex="1">
          <mxGeometry x="20.000000000000455" y="1140" width="330" height="520" as="geometry" />
        </mxCell>
        <mxCell id="hxpdlsdt68PjaTI5VVJk-190" value="Student" style="swimlane;startSize=20;html=1;" parent="hxpdlsdt68PjaTI5VVJk-189" vertex="1">
          <mxGeometry y="20" width="170" height="500" as="geometry" />
        </mxCell>
        <mxCell id="hxpdlsdt68PjaTI5VVJk-191" value="" style="ellipse;html=1;shape=startState;fillColor=#000000;strokeColor=#000000;" parent="hxpdlsdt68PjaTI5VVJk-190" vertex="1">
          <mxGeometry x="74.99999999999955" y="40" width="30" height="30" as="geometry" />
        </mxCell>
        <mxCell id="hxpdlsdt68PjaTI5VVJk-192" value="" style="edgeStyle=orthogonalEdgeStyle;html=1;verticalAlign=bottom;endArrow=open;endSize=8;strokeColor=#140000;rounded=0;" parent="hxpdlsdt68PjaTI5VVJk-190" source="hxpdlsdt68PjaTI5VVJk-191" edge="1">
          <mxGeometry relative="1" as="geometry">
            <mxPoint x="89.99999999999955" y="130" as="targetPoint" />
          </mxGeometry>
        </mxCell>
        <mxCell id="hxpdlsdt68PjaTI5VVJk-193" value="Login" style="rounded=1;whiteSpace=wrap;html=1;arcSize=40;fontColor=#000000;fillColor=#FFFFFF;strokeColor=#140000;" parent="hxpdlsdt68PjaTI5VVJk-190" vertex="1">
          <mxGeometry x="29.999999999999545" y="125" width="120" height="40" as="geometry" />
        </mxCell>
        <mxCell id="hxpdlsdt68PjaTI5VVJk-194" value="" style="edgeStyle=orthogonalEdgeStyle;html=1;verticalAlign=bottom;endArrow=open;endSize=8;strokeColor=#140000;rounded=0;" parent="hxpdlsdt68PjaTI5VVJk-190" source="hxpdlsdt68PjaTI5VVJk-193" edge="1">
          <mxGeometry relative="1" as="geometry">
            <mxPoint x="89.99999999999955" y="225" as="targetPoint" />
          </mxGeometry>
        </mxCell>
        <mxCell id="hxpdlsdt68PjaTI5VVJk-195" value="Select View Notifications" style="rounded=1;whiteSpace=wrap;html=1;arcSize=40;fontColor=#000000;fillColor=#FFFFFF;strokeColor=#140000;" parent="hxpdlsdt68PjaTI5VVJk-190" vertex="1">
          <mxGeometry x="29.999999999999545" y="225" width="120" height="40" as="geometry" />
        </mxCell>
        <mxCell id="hxpdlsdt68PjaTI5VVJk-196" value="View Notifications" style="rounded=1;whiteSpace=wrap;html=1;arcSize=40;fontColor=#000000;fillColor=#FFFFFF;strokeColor=#0A0000;" parent="hxpdlsdt68PjaTI5VVJk-190" vertex="1">
          <mxGeometry x="29.999999999999545" y="360" width="120" height="40" as="geometry" />
        </mxCell>
        <mxCell id="hxpdlsdt68PjaTI5VVJk-197" value="" style="edgeStyle=orthogonalEdgeStyle;html=1;verticalAlign=bottom;endArrow=open;endSize=8;strokeColor=#080000;rounded=0;fillColor=#FFFFFF;" parent="hxpdlsdt68PjaTI5VVJk-190" source="hxpdlsdt68PjaTI5VVJk-196" target="hxpdlsdt68PjaTI5VVJk-198" edge="1">
          <mxGeometry relative="1" as="geometry">
            <mxPoint x="110" y="1055" as="targetPoint" />
            <mxPoint x="110.00000000000045" y="995" as="sourcePoint" />
          </mxGeometry>
        </mxCell>
        <mxCell id="hxpdlsdt68PjaTI5VVJk-198" value="" style="ellipse;html=1;shape=endState;fillColor=#000000;strokeColor=#0A0000;" parent="hxpdlsdt68PjaTI5VVJk-190" vertex="1">
          <mxGeometry x="74.99999999999955" y="450" width="30" height="30" as="geometry" />
        </mxCell>
        <mxCell id="hxpdlsdt68PjaTI5VVJk-199" value="System" style="swimlane;startSize=20;html=1;" parent="hxpdlsdt68PjaTI5VVJk-189" vertex="1">
          <mxGeometry x="170" y="20" width="160" height="500" as="geometry" />
        </mxCell>
        <mxCell id="hxpdlsdt68PjaTI5VVJk-200" value="" style="edgeStyle=orthogonalEdgeStyle;rounded=0;orthogonalLoop=1;jettySize=auto;html=1;" parent="hxpdlsdt68PjaTI5VVJk-199" source="hxpdlsdt68PjaTI5VVJk-201" target="hxpdlsdt68PjaTI5VVJk-202" edge="1">
          <mxGeometry relative="1" as="geometry" />
        </mxCell>
        <mxCell id="hxpdlsdt68PjaTI5VVJk-201" value="Fetches&amp;nbsp;&lt;div&gt;Notification&amp;nbsp;&lt;/div&gt;" style="whiteSpace=wrap;html=1;fillColor=#FFFFFF;strokeColor=#140000;fontColor=#000000;rounded=1;arcSize=40;" parent="hxpdlsdt68PjaTI5VVJk-199" vertex="1">
          <mxGeometry x="19.999999999999545" y="215" width="120" height="60" as="geometry" />
        </mxCell>
        <mxCell id="hxpdlsdt68PjaTI5VVJk-202" value="Display&amp;nbsp;&lt;div&gt;Notifications&amp;nbsp;&lt;/div&gt;" style="whiteSpace=wrap;html=1;fillColor=#FFFFFF;strokeColor=#140000;fontColor=#000000;rounded=1;arcSize=40;" parent="hxpdlsdt68PjaTI5VVJk-199" vertex="1">
          <mxGeometry x="29.999999999999545" y="350" width="120" height="60" as="geometry" />
        </mxCell>
        <mxCell id="hxpdlsdt68PjaTI5VVJk-203" value="" style="edgeStyle=orthogonalEdgeStyle;rounded=0;orthogonalLoop=1;jettySize=auto;html=1;" parent="hxpdlsdt68PjaTI5VVJk-189" source="hxpdlsdt68PjaTI5VVJk-195" target="hxpdlsdt68PjaTI5VVJk-201" edge="1">
          <mxGeometry relative="1" as="geometry" />
        </mxCell>
        <mxCell id="hxpdlsdt68PjaTI5VVJk-204" value="" style="edgeStyle=orthogonalEdgeStyle;rounded=0;orthogonalLoop=1;jettySize=auto;html=1;" parent="hxpdlsdt68PjaTI5VVJk-189" source="hxpdlsdt68PjaTI5VVJk-202" target="hxpdlsdt68PjaTI5VVJk-196" edge="1">
          <mxGeometry relative="1" as="geometry" />
        </mxCell>
        <mxCell id="hxpdlsdt68PjaTI5VVJk-222" value="View Results" style="swimlane;childLayout=stackLayout;resizeParent=1;resizeParentMax=0;startSize=20;html=1;" parent="1" vertex="1">
          <mxGeometry x="465.00000000000045" y="540" width="360" height="520" as="geometry" />
        </mxCell>
        <mxCell id="hxpdlsdt68PjaTI5VVJk-223" value="Student" style="swimlane;startSize=20;html=1;" parent="hxpdlsdt68PjaTI5VVJk-222" vertex="1">
          <mxGeometry y="20" width="180" height="500" as="geometry" />
        </mxCell>
        <mxCell id="hxpdlsdt68PjaTI5VVJk-224" value="" style="ellipse;html=1;shape=startState;fillColor=#000000;strokeColor=#000000;" parent="hxpdlsdt68PjaTI5VVJk-223" vertex="1">
          <mxGeometry x="74.99999999999955" y="40" width="30" height="30" as="geometry" />
        </mxCell>
        <mxCell id="hxpdlsdt68PjaTI5VVJk-225" value="" style="edgeStyle=orthogonalEdgeStyle;html=1;verticalAlign=bottom;endArrow=open;endSize=8;strokeColor=#140000;rounded=0;" parent="hxpdlsdt68PjaTI5VVJk-223" source="hxpdlsdt68PjaTI5VVJk-224" edge="1">
          <mxGeometry relative="1" as="geometry">
            <mxPoint x="89.99999999999955" y="130" as="targetPoint" />
          </mxGeometry>
        </mxCell>
        <mxCell id="hxpdlsdt68PjaTI5VVJk-226" value="Login" style="rounded=1;whiteSpace=wrap;html=1;arcSize=40;fontColor=#000000;fillColor=#FFFFFF;strokeColor=#140000;" parent="hxpdlsdt68PjaTI5VVJk-223" vertex="1">
          <mxGeometry x="29.999999999999545" y="125" width="120" height="40" as="geometry" />
        </mxCell>
        <mxCell id="hxpdlsdt68PjaTI5VVJk-227" value="" style="edgeStyle=orthogonalEdgeStyle;html=1;verticalAlign=bottom;endArrow=open;endSize=8;strokeColor=#140000;rounded=0;" parent="hxpdlsdt68PjaTI5VVJk-223" source="hxpdlsdt68PjaTI5VVJk-226" edge="1">
          <mxGeometry relative="1" as="geometry">
            <mxPoint x="89.99999999999955" y="225" as="targetPoint" />
          </mxGeometry>
        </mxCell>
        <mxCell id="hxpdlsdt68PjaTI5VVJk-228" value="Select View Results" style="rounded=1;whiteSpace=wrap;html=1;arcSize=40;fontColor=#000000;fillColor=#FFFFFF;strokeColor=#140000;" parent="hxpdlsdt68PjaTI5VVJk-223" vertex="1">
          <mxGeometry x="29.999999999999545" y="225" width="120" height="40" as="geometry" />
        </mxCell>
        <mxCell id="hxpdlsdt68PjaTI5VVJk-229" value="Display Results Details" style="rounded=1;whiteSpace=wrap;html=1;arcSize=40;fontColor=#000000;fillColor=#FFFFFF;strokeColor=#0A0000;" parent="hxpdlsdt68PjaTI5VVJk-223" vertex="1">
          <mxGeometry x="29.999999999999545" y="360" width="120" height="40" as="geometry" />
        </mxCell>
        <mxCell id="hxpdlsdt68PjaTI5VVJk-230" value="" style="edgeStyle=orthogonalEdgeStyle;html=1;verticalAlign=bottom;endArrow=open;endSize=8;strokeColor=#080000;rounded=0;fillColor=#FFFFFF;" parent="hxpdlsdt68PjaTI5VVJk-223" source="hxpdlsdt68PjaTI5VVJk-229" target="hxpdlsdt68PjaTI5VVJk-231" edge="1">
          <mxGeometry relative="1" as="geometry">
            <mxPoint x="110" y="1055" as="targetPoint" />
            <mxPoint x="110.00000000000045" y="995" as="sourcePoint" />
          </mxGeometry>
        </mxCell>
        <mxCell id="hxpdlsdt68PjaTI5VVJk-231" value="" style="ellipse;html=1;shape=endState;fillColor=#000000;strokeColor=#0A0000;" parent="hxpdlsdt68PjaTI5VVJk-223" vertex="1">
          <mxGeometry x="74.99999999999955" y="450" width="30" height="30" as="geometry" />
        </mxCell>
        <mxCell id="hxpdlsdt68PjaTI5VVJk-232" value="System" style="swimlane;startSize=20;html=1;" parent="hxpdlsdt68PjaTI5VVJk-222" vertex="1">
          <mxGeometry x="180" y="20" width="180" height="500" as="geometry" />
        </mxCell>
        <mxCell id="hxpdlsdt68PjaTI5VVJk-233" value="" style="edgeStyle=orthogonalEdgeStyle;rounded=0;orthogonalLoop=1;jettySize=auto;html=1;" parent="hxpdlsdt68PjaTI5VVJk-232" source="hxpdlsdt68PjaTI5VVJk-234" target="hxpdlsdt68PjaTI5VVJk-235" edge="1">
          <mxGeometry relative="1" as="geometry" />
        </mxCell>
        <mxCell id="hxpdlsdt68PjaTI5VVJk-234" value="Retrive&amp;nbsp;&lt;div&gt;Results Details&lt;/div&gt;" style="whiteSpace=wrap;html=1;fillColor=#FFFFFF;strokeColor=#140000;fontColor=#000000;rounded=1;arcSize=40;" parent="hxpdlsdt68PjaTI5VVJk-232" vertex="1">
          <mxGeometry x="49.999999999999545" y="215" width="120" height="60" as="geometry" />
        </mxCell>
        <mxCell id="hxpdlsdt68PjaTI5VVJk-235" value="Display&amp;nbsp;&lt;div&gt;Results Details&lt;/div&gt;" style="whiteSpace=wrap;html=1;fillColor=#FFFFFF;strokeColor=#140000;fontColor=#000000;rounded=1;arcSize=40;" parent="hxpdlsdt68PjaTI5VVJk-232" vertex="1">
          <mxGeometry x="49.999999999999545" y="355" width="120" height="60" as="geometry" />
        </mxCell>
        <mxCell id="hxpdlsdt68PjaTI5VVJk-236" value="" style="edgeStyle=orthogonalEdgeStyle;rounded=0;orthogonalLoop=1;jettySize=auto;html=1;" parent="hxpdlsdt68PjaTI5VVJk-222" source="hxpdlsdt68PjaTI5VVJk-228" target="hxpdlsdt68PjaTI5VVJk-234" edge="1">
          <mxGeometry relative="1" as="geometry" />
        </mxCell>
        <mxCell id="hxpdlsdt68PjaTI5VVJk-237" value="" style="edgeStyle=orthogonalEdgeStyle;rounded=0;orthogonalLoop=1;jettySize=auto;html=1;" parent="hxpdlsdt68PjaTI5VVJk-222" source="hxpdlsdt68PjaTI5VVJk-235" target="hxpdlsdt68PjaTI5VVJk-229" edge="1">
          <mxGeometry relative="1" as="geometry" />
        </mxCell>
        <mxCell id="hxpdlsdt68PjaTI5VVJk-238" value="Edit Account Details&amp;nbsp;" style="swimlane;childLayout=stackLayout;resizeParent=1;resizeParentMax=0;startSize=20;html=1;" parent="1" vertex="1">
          <mxGeometry x="380.00000000000045" y="1130" width="440" height="910" as="geometry" />
        </mxCell>
        <mxCell id="hxpdlsdt68PjaTI5VVJk-239" value="User" style="swimlane;startSize=20;html=1;" parent="hxpdlsdt68PjaTI5VVJk-238" vertex="1">
          <mxGeometry y="20" width="210" height="890" as="geometry" />
        </mxCell>
        <mxCell id="hxpdlsdt68PjaTI5VVJk-266" value="Login" style="rounded=1;whiteSpace=wrap;html=1;arcSize=40;fontColor=#000000;fillColor=#FFFFFF;strokeColor=#050000;" parent="hxpdlsdt68PjaTI5VVJk-239" vertex="1">
          <mxGeometry x="44.999999999999545" y="122.5" width="120" height="40" as="geometry" />
        </mxCell>
        <mxCell id="hxpdlsdt68PjaTI5VVJk-265" value="" style="edgeStyle=orthogonalEdgeStyle;html=1;verticalAlign=bottom;endArrow=open;endSize=8;strokeColor=#0A0000;rounded=0;" parent="hxpdlsdt68PjaTI5VVJk-239" edge="1">
          <mxGeometry relative="1" as="geometry">
            <mxPoint x="104.99999999999955" y="127.5" as="targetPoint" />
            <mxPoint x="104.99999999999955" y="67.5" as="sourcePoint" />
          </mxGeometry>
        </mxCell>
        <mxCell id="hxpdlsdt68PjaTI5VVJk-88" value="" style="ellipse;html=1;shape=startState;fillColor=#000000;strokeColor=#080000;" parent="hxpdlsdt68PjaTI5VVJk-239" vertex="1">
          <mxGeometry x="89.99999999999955" y="37.5" width="30" height="30" as="geometry" />
        </mxCell>
        <mxCell id="hxpdlsdt68PjaTI5VVJk-267" value="" style="edgeStyle=orthogonalEdgeStyle;html=1;verticalAlign=bottom;endArrow=open;endSize=8;strokeColor=#050000;rounded=0;fillColor=none;" parent="hxpdlsdt68PjaTI5VVJk-239" source="hxpdlsdt68PjaTI5VVJk-266" edge="1">
          <mxGeometry relative="1" as="geometry">
            <mxPoint x="104.99999999999955" y="222.5" as="targetPoint" />
          </mxGeometry>
        </mxCell>
        <mxCell id="hxpdlsdt68PjaTI5VVJk-268" value="Select Edit Account Details" style="rounded=1;whiteSpace=wrap;html=1;arcSize=40;fontColor=#000000;fillColor=none;strokeColor=#050000;" parent="hxpdlsdt68PjaTI5VVJk-239" vertex="1">
          <mxGeometry x="44.999999999999545" y="222.5" width="120" height="40" as="geometry" />
        </mxCell>
        <mxCell id="hxpdlsdt68PjaTI5VVJk-313" value="" style="edgeStyle=orthogonalEdgeStyle;rounded=0;orthogonalLoop=1;jettySize=auto;html=1;" parent="hxpdlsdt68PjaTI5VVJk-239" source="hxpdlsdt68PjaTI5VVJk-310" edge="1">
          <mxGeometry relative="1" as="geometry">
            <mxPoint x="109.99999999999955" y="380" as="targetPoint" />
          </mxGeometry>
        </mxCell>
        <mxCell id="hxpdlsdt68PjaTI5VVJk-310" value="View Current Account Details" style="rounded=1;whiteSpace=wrap;html=1;arcSize=40;fontColor=#000000;fillColor=none;strokeColor=#050000;" parent="hxpdlsdt68PjaTI5VVJk-239" vertex="1">
          <mxGeometry x="49.999999999999545" y="305" width="120" height="40" as="geometry" />
        </mxCell>
        <mxCell id="hxpdlsdt68PjaTI5VVJk-315" value="" style="edgeStyle=orthogonalEdgeStyle;rounded=0;orthogonalLoop=1;jettySize=auto;html=1;" parent="hxpdlsdt68PjaTI5VVJk-239" source="hxpdlsdt68PjaTI5VVJk-314" target="hxpdlsdt68PjaTI5VVJk-276" edge="1">
          <mxGeometry relative="1" as="geometry" />
        </mxCell>
        <mxCell id="hxpdlsdt68PjaTI5VVJk-314" value="Edit Account Details" style="rounded=1;whiteSpace=wrap;html=1;arcSize=40;fontColor=#000000;fillColor=none;strokeColor=#050000;" parent="hxpdlsdt68PjaTI5VVJk-239" vertex="1">
          <mxGeometry x="49.999999999999545" y="380" width="120" height="40" as="geometry" />
        </mxCell>
        <mxCell id="hxpdlsdt68PjaTI5VVJk-320" value="" style="edgeStyle=orthogonalEdgeStyle;rounded=0;orthogonalLoop=1;jettySize=auto;html=1;" parent="hxpdlsdt68PjaTI5VVJk-239" source="hxpdlsdt68PjaTI5VVJk-276" target="hxpdlsdt68PjaTI5VVJk-317" edge="1">
          <mxGeometry relative="1" as="geometry">
            <Array as="points">
              <mxPoint x="110" y="510" />
              <mxPoint x="170" y="510" />
            </Array>
          </mxGeometry>
        </mxCell>
        <mxCell id="hxpdlsdt68PjaTI5VVJk-276" value="Select Save Changes" style="rounded=1;whiteSpace=wrap;html=1;arcSize=40;fontColor=#000000;fillColor=none;strokeColor=#050000;" parent="hxpdlsdt68PjaTI5VVJk-239" vertex="1">
          <mxGeometry x="49.999999999999545" y="460" width="120" height="40" as="geometry" />
        </mxCell>
        <mxCell id="hxpdlsdt68PjaTI5VVJk-317" value="" style="rhombus;whiteSpace=wrap;html=1;fontColor=#000000;fillColor=#FFFFFF;strokeColor=#0A0000;" parent="hxpdlsdt68PjaTI5VVJk-239" vertex="1">
          <mxGeometry x="129.99999999999955" y="530" width="80" height="40" as="geometry" />
        </mxCell>
        <mxCell id="hxpdlsdt68PjaTI5VVJk-318" value="" style="edgeStyle=orthogonalEdgeStyle;html=1;align=left;verticalAlign=bottom;endArrow=open;endSize=8;strokeColor=#0A0000;rounded=0;fillColor=#FFFFFF;" parent="hxpdlsdt68PjaTI5VVJk-239" source="hxpdlsdt68PjaTI5VVJk-317" edge="1">
          <mxGeometry x="-1" relative="1" as="geometry">
            <mxPoint x="289.99999999999955" y="550" as="targetPoint" />
          </mxGeometry>
        </mxCell>
        <mxCell id="hxpdlsdt68PjaTI5VVJk-323" value="Input valid" style="edgeLabel;html=1;align=center;verticalAlign=middle;resizable=0;points=[];" parent="hxpdlsdt68PjaTI5VVJk-318" vertex="1" connectable="0">
          <mxGeometry x="-0.0966" y="1" relative="1" as="geometry">
            <mxPoint as="offset" />
          </mxGeometry>
        </mxCell>
        <mxCell id="hxpdlsdt68PjaTI5VVJk-330" style="edgeStyle=orthogonalEdgeStyle;rounded=0;orthogonalLoop=1;jettySize=auto;html=1;exitX=0;exitY=0.5;exitDx=0;exitDy=0;entryX=0;entryY=0.5;entryDx=0;entryDy=0;" parent="hxpdlsdt68PjaTI5VVJk-239" source="hxpdlsdt68PjaTI5VVJk-328" target="hxpdlsdt68PjaTI5VVJk-314" edge="1">
          <mxGeometry relative="1" as="geometry" />
        </mxCell>
        <mxCell id="hxpdlsdt68PjaTI5VVJk-328" value="View Error Message" style="rounded=1;whiteSpace=wrap;html=1;arcSize=40;fontColor=#000000;fillColor=#FFFFFF;strokeColor=#000000;" parent="hxpdlsdt68PjaTI5VVJk-239" vertex="1">
          <mxGeometry x="49.999999999999545" y="630" width="120" height="40" as="geometry" />
        </mxCell>
        <mxCell id="hxpdlsdt68PjaTI5VVJk-334" value="" style="edgeStyle=orthogonalEdgeStyle;rounded=0;orthogonalLoop=1;jettySize=auto;html=1;" parent="hxpdlsdt68PjaTI5VVJk-239" source="hxpdlsdt68PjaTI5VVJk-332" target="hxpdlsdt68PjaTI5VVJk-287" edge="1">
          <mxGeometry relative="1" as="geometry" />
        </mxCell>
        <mxCell id="hxpdlsdt68PjaTI5VVJk-332" value="View&amp;nbsp; Message" style="whiteSpace=wrap;html=1;fillColor=#FFFFFF;strokeColor=#000000;fontColor=#000000;rounded=1;arcSize=40;" parent="hxpdlsdt68PjaTI5VVJk-239" vertex="1">
          <mxGeometry x="59.999999999999545" y="710" width="120" height="60" as="geometry" />
        </mxCell>
        <mxCell id="hxpdlsdt68PjaTI5VVJk-287" value="" style="ellipse;html=1;shape=endState;fillColor=#000000;strokeColor=#000000;" parent="hxpdlsdt68PjaTI5VVJk-239" vertex="1">
          <mxGeometry x="104.99999999999955" y="820" width="30" height="30" as="geometry" />
        </mxCell>
        <mxCell id="hxpdlsdt68PjaTI5VVJk-240" value="System" style="swimlane;startSize=20;html=1;" parent="hxpdlsdt68PjaTI5VVJk-238" vertex="1">
          <mxGeometry x="210" y="20" width="230" height="890" as="geometry" />
        </mxCell>
        <mxCell id="hxpdlsdt68PjaTI5VVJk-305" value="" style="edgeStyle=orthogonalEdgeStyle;rounded=0;orthogonalLoop=1;jettySize=auto;html=1;" parent="hxpdlsdt68PjaTI5VVJk-240" source="hxpdlsdt68PjaTI5VVJk-303" target="hxpdlsdt68PjaTI5VVJk-272" edge="1">
          <mxGeometry relative="1" as="geometry" />
        </mxCell>
        <mxCell id="hxpdlsdt68PjaTI5VVJk-303" value="Retrive Current Account Details" style="rounded=1;whiteSpace=wrap;html=1;arcSize=40;fontColor=#000000;fillColor=none;strokeColor=#050000;" parent="hxpdlsdt68PjaTI5VVJk-240" vertex="1">
          <mxGeometry x="39.999999999999545" y="225" width="120" height="40" as="geometry" />
        </mxCell>
        <mxCell id="hxpdlsdt68PjaTI5VVJk-272" value="Display Current Account Details" style="rounded=1;whiteSpace=wrap;html=1;arcSize=40;fontColor=#000000;fillColor=none;strokeColor=#050000;" parent="hxpdlsdt68PjaTI5VVJk-240" vertex="1">
          <mxGeometry x="39.999999999999545" y="305" width="120" height="40" as="geometry" />
        </mxCell>
        <mxCell id="hxpdlsdt68PjaTI5VVJk-284" value="Display Error Message" style="rounded=1;whiteSpace=wrap;html=1;arcSize=40;fontColor=#000000;fillColor=#FFFFFF;strokeColor=#000000;" parent="hxpdlsdt68PjaTI5VVJk-240" vertex="1">
          <mxGeometry x="39.999999999999545" y="640" width="120" height="40" as="geometry" />
        </mxCell>
        <mxCell id="hxpdlsdt68PjaTI5VVJk-282" value="&amp;nbsp;Update Account Details" style="rounded=1;whiteSpace=wrap;html=1;arcSize=40;fontColor=#000000;fillColor=#FFFFFF;strokeColor=#000000;" parent="hxpdlsdt68PjaTI5VVJk-240" vertex="1">
          <mxGeometry x="79.99999999999955" y="530" width="120" height="40" as="geometry" />
        </mxCell>
        <mxCell id="hxpdlsdt68PjaTI5VVJk-286" value="Display Succes Message" style="whiteSpace=wrap;html=1;fillColor=#FFFFFF;strokeColor=#000000;fontColor=#000000;rounded=1;arcSize=40;" parent="hxpdlsdt68PjaTI5VVJk-240" vertex="1">
          <mxGeometry x="99.99999999999955" y="710" width="120" height="60" as="geometry" />
        </mxCell>
        <mxCell id="hxpdlsdt68PjaTI5VVJk-281" value="" style="edgeStyle=orthogonalEdgeStyle;rounded=0;orthogonalLoop=1;jettySize=auto;html=1;strokeColor=#000000;fillColor=#FFFFFF;" parent="hxpdlsdt68PjaTI5VVJk-240" source="hxpdlsdt68PjaTI5VVJk-282" target="hxpdlsdt68PjaTI5VVJk-286" edge="1">
          <mxGeometry relative="1" as="geometry">
            <Array as="points">
              <mxPoint x="170" y="660" />
              <mxPoint x="170" y="660" />
            </Array>
          </mxGeometry>
        </mxCell>
        <mxCell id="hxpdlsdt68PjaTI5VVJk-304" value="" style="edgeStyle=orthogonalEdgeStyle;rounded=0;orthogonalLoop=1;jettySize=auto;html=1;" parent="hxpdlsdt68PjaTI5VVJk-238" source="hxpdlsdt68PjaTI5VVJk-268" target="hxpdlsdt68PjaTI5VVJk-303" edge="1">
          <mxGeometry relative="1" as="geometry" />
        </mxCell>
        <mxCell id="hxpdlsdt68PjaTI5VVJk-311" value="" style="edgeStyle=orthogonalEdgeStyle;rounded=0;orthogonalLoop=1;jettySize=auto;html=1;" parent="hxpdlsdt68PjaTI5VVJk-238" source="hxpdlsdt68PjaTI5VVJk-272" target="hxpdlsdt68PjaTI5VVJk-310" edge="1">
          <mxGeometry relative="1" as="geometry" />
        </mxCell>
        <mxCell id="hxpdlsdt68PjaTI5VVJk-326" style="edgeStyle=orthogonalEdgeStyle;rounded=0;orthogonalLoop=1;jettySize=auto;html=1;exitX=0.5;exitY=1;exitDx=0;exitDy=0;entryX=0;entryY=0.75;entryDx=0;entryDy=0;" parent="hxpdlsdt68PjaTI5VVJk-238" source="hxpdlsdt68PjaTI5VVJk-317" target="hxpdlsdt68PjaTI5VVJk-284" edge="1">
          <mxGeometry relative="1" as="geometry">
            <Array as="points">
              <mxPoint x="190" y="590" />
              <mxPoint x="190" y="690" />
            </Array>
          </mxGeometry>
        </mxCell>
        <mxCell id="hxpdlsdt68PjaTI5VVJk-331" value="Invalid input" style="edgeLabel;html=1;align=center;verticalAlign=middle;resizable=0;points=[];" parent="hxpdlsdt68PjaTI5VVJk-326" vertex="1" connectable="0">
          <mxGeometry x="-0.72" y="-1" relative="1" as="geometry">
            <mxPoint x="1" y="34" as="offset" />
          </mxGeometry>
        </mxCell>
        <mxCell id="hxpdlsdt68PjaTI5VVJk-329" value="" style="edgeStyle=orthogonalEdgeStyle;rounded=0;orthogonalLoop=1;jettySize=auto;html=1;" parent="hxpdlsdt68PjaTI5VVJk-238" source="hxpdlsdt68PjaTI5VVJk-284" target="hxpdlsdt68PjaTI5VVJk-328" edge="1">
          <mxGeometry relative="1" as="geometry" />
        </mxCell>
        <mxCell id="hxpdlsdt68PjaTI5VVJk-333" value="" style="edgeStyle=orthogonalEdgeStyle;rounded=0;orthogonalLoop=1;jettySize=auto;html=1;" parent="hxpdlsdt68PjaTI5VVJk-238" source="hxpdlsdt68PjaTI5VVJk-286" target="hxpdlsdt68PjaTI5VVJk-332" edge="1">
          <mxGeometry relative="1" as="geometry" />
        </mxCell>
        <mxCell id="19AYfMJwUUPp3SPWDgAh-57" value="Change Password" style="swimlane;childLayout=stackLayout;resizeParent=1;resizeParentMax=0;startSize=20;html=1;" parent="1" vertex="1">
          <mxGeometry x="40" y="2220" width="470" height="940" as="geometry" />
        </mxCell>
        <mxCell id="19AYfMJwUUPp3SPWDgAh-58" value="User" style="swimlane;startSize=20;html=1;" parent="19AYfMJwUUPp3SPWDgAh-57" vertex="1">
          <mxGeometry y="20" width="175" height="920" as="geometry" />
        </mxCell>
        <mxCell id="19AYfMJwUUPp3SPWDgAh-65" value="" style="edgeStyle=orthogonalEdgeStyle;rounded=0;orthogonalLoop=1;jettySize=auto;html=1;" parent="19AYfMJwUUPp3SPWDgAh-58" source="19AYfMJwUUPp3SPWDgAh-61" target="19AYfMJwUUPp3SPWDgAh-64" edge="1">
          <mxGeometry relative="1" as="geometry" />
        </mxCell>
        <mxCell id="19AYfMJwUUPp3SPWDgAh-61" value="" style="ellipse;html=1;shape=startState;fillColor=#000000;strokeColor=#000000;" parent="19AYfMJwUUPp3SPWDgAh-58" vertex="1">
          <mxGeometry x="55" y="30" width="30" height="30" as="geometry" />
        </mxCell>
        <mxCell id="19AYfMJwUUPp3SPWDgAh-67" value="" style="edgeStyle=orthogonalEdgeStyle;rounded=0;orthogonalLoop=1;jettySize=auto;html=1;" parent="19AYfMJwUUPp3SPWDgAh-58" source="19AYfMJwUUPp3SPWDgAh-64" target="19AYfMJwUUPp3SPWDgAh-66" edge="1">
          <mxGeometry relative="1" as="geometry" />
        </mxCell>
        <mxCell id="19AYfMJwUUPp3SPWDgAh-64" value="Login" style="rounded=1;whiteSpace=wrap;html=1;arcSize=40;fontColor=#000000;fillColor=#FFFFFF;strokeColor=#140000;" parent="19AYfMJwUUPp3SPWDgAh-58" vertex="1">
          <mxGeometry x="10" y="90" width="120" height="40" as="geometry" />
        </mxCell>
        <mxCell id="19AYfMJwUUPp3SPWDgAh-69" value="" style="edgeStyle=orthogonalEdgeStyle;rounded=0;orthogonalLoop=1;jettySize=auto;html=1;" parent="19AYfMJwUUPp3SPWDgAh-58" source="19AYfMJwUUPp3SPWDgAh-66" target="19AYfMJwUUPp3SPWDgAh-68" edge="1">
          <mxGeometry relative="1" as="geometry" />
        </mxCell>
        <mxCell id="19AYfMJwUUPp3SPWDgAh-66" value="Select Change Password" style="rounded=1;whiteSpace=wrap;html=1;arcSize=40;fontColor=#000000;fillColor=#FFFFFF;strokeColor=#140000;" parent="19AYfMJwUUPp3SPWDgAh-58" vertex="1">
          <mxGeometry x="10" y="160" width="120" height="40" as="geometry" />
        </mxCell>
        <mxCell id="19AYfMJwUUPp3SPWDgAh-68" value="Input Current Password" style="rounded=1;whiteSpace=wrap;html=1;arcSize=40;fontColor=#000000;fillColor=#FFFFFF;strokeColor=#140000;" parent="19AYfMJwUUPp3SPWDgAh-58" vertex="1">
          <mxGeometry x="10" y="230" width="120" height="40" as="geometry" />
        </mxCell>
        <mxCell id="19AYfMJwUUPp3SPWDgAh-83" value="View Error Message" style="rounded=1;whiteSpace=wrap;html=1;" parent="19AYfMJwUUPp3SPWDgAh-58" vertex="1">
          <mxGeometry x="10" y="420" width="120" height="40" as="geometry" />
        </mxCell>
        <mxCell id="19AYfMJwUUPp3SPWDgAh-75" value="Input New Password" style="rounded=1;whiteSpace=wrap;html=1;" parent="19AYfMJwUUPp3SPWDgAh-58" vertex="1">
          <mxGeometry x="40" y="305" width="120" height="45" as="geometry" />
        </mxCell>
        <mxCell id="19AYfMJwUUPp3SPWDgAh-90" style="edgeStyle=orthogonalEdgeStyle;rounded=0;orthogonalLoop=1;jettySize=auto;html=1;entryX=0.082;entryY=1.005;entryDx=0;entryDy=0;entryPerimeter=0;" parent="19AYfMJwUUPp3SPWDgAh-58" source="19AYfMJwUUPp3SPWDgAh-83" target="19AYfMJwUUPp3SPWDgAh-68" edge="1">
          <mxGeometry relative="1" as="geometry">
            <Array as="points">
              <mxPoint x="70" y="370" />
              <mxPoint x="20" y="370" />
            </Array>
          </mxGeometry>
        </mxCell>
        <mxCell id="19AYfMJwUUPp3SPWDgAh-86" value="ReEnter New Password" style="rounded=1;whiteSpace=wrap;html=1;" parent="19AYfMJwUUPp3SPWDgAh-58" vertex="1">
          <mxGeometry x="40" y="500" width="120" height="45" as="geometry" />
        </mxCell>
        <mxCell id="19AYfMJwUUPp3SPWDgAh-91" style="edgeStyle=orthogonalEdgeStyle;rounded=0;orthogonalLoop=1;jettySize=auto;html=1;entryX=0.917;entryY=0;entryDx=0;entryDy=0;entryPerimeter=0;" parent="19AYfMJwUUPp3SPWDgAh-58" source="19AYfMJwUUPp3SPWDgAh-75" target="19AYfMJwUUPp3SPWDgAh-86" edge="1">
          <mxGeometry relative="1" as="geometry">
            <Array as="points">
              <mxPoint x="100" y="380" />
              <mxPoint x="150" y="380" />
            </Array>
          </mxGeometry>
        </mxCell>
        <mxCell id="19AYfMJwUUPp3SPWDgAh-107" style="edgeStyle=orthogonalEdgeStyle;rounded=0;orthogonalLoop=1;jettySize=auto;html=1;" parent="19AYfMJwUUPp3SPWDgAh-58" source="19AYfMJwUUPp3SPWDgAh-105" edge="1">
          <mxGeometry relative="1" as="geometry">
            <mxPoint x="90" y="550" as="targetPoint" />
          </mxGeometry>
        </mxCell>
        <mxCell id="19AYfMJwUUPp3SPWDgAh-105" value="View Error Message" style="rounded=1;whiteSpace=wrap;html=1;" parent="19AYfMJwUUPp3SPWDgAh-58" vertex="1">
          <mxGeometry x="25" y="685" width="105" height="40" as="geometry" />
        </mxCell>
        <mxCell id="19AYfMJwUUPp3SPWDgAh-73" style="edgeStyle=orthogonalEdgeStyle;rounded=0;orthogonalLoop=1;jettySize=auto;html=1;entryX=0;entryY=0.5;entryDx=0;entryDy=0;" parent="19AYfMJwUUPp3SPWDgAh-57" source="19AYfMJwUUPp3SPWDgAh-68" target="19AYfMJwUUPp3SPWDgAh-72" edge="1">
          <mxGeometry relative="1" as="geometry" />
        </mxCell>
        <mxCell id="19AYfMJwUUPp3SPWDgAh-84" value="" style="edgeStyle=orthogonalEdgeStyle;rounded=0;orthogonalLoop=1;jettySize=auto;html=1;" parent="19AYfMJwUUPp3SPWDgAh-57" source="19AYfMJwUUPp3SPWDgAh-79" target="19AYfMJwUUPp3SPWDgAh-83" edge="1">
          <mxGeometry relative="1" as="geometry" />
        </mxCell>
        <mxCell id="19AYfMJwUUPp3SPWDgAh-88" value="" style="edgeStyle=orthogonalEdgeStyle;rounded=0;orthogonalLoop=1;jettySize=auto;html=1;" parent="19AYfMJwUUPp3SPWDgAh-57" source="19AYfMJwUUPp3SPWDgAh-72" target="19AYfMJwUUPp3SPWDgAh-75" edge="1">
          <mxGeometry relative="1" as="geometry" />
        </mxCell>
        <mxCell id="19AYfMJwUUPp3SPWDgAh-89" value="Password Correct" style="edgeLabel;html=1;align=center;verticalAlign=middle;resizable=0;points=[];" parent="19AYfMJwUUPp3SPWDgAh-88" vertex="1" connectable="0">
          <mxGeometry x="0.1209" y="-3" relative="1" as="geometry">
            <mxPoint x="20" y="3" as="offset" />
          </mxGeometry>
        </mxCell>
        <mxCell id="19AYfMJwUUPp3SPWDgAh-95" style="edgeStyle=orthogonalEdgeStyle;rounded=0;orthogonalLoop=1;jettySize=auto;html=1;" parent="19AYfMJwUUPp3SPWDgAh-57" source="19AYfMJwUUPp3SPWDgAh-86" target="19AYfMJwUUPp3SPWDgAh-94" edge="1">
          <mxGeometry relative="1" as="geometry" />
        </mxCell>
        <mxCell id="19AYfMJwUUPp3SPWDgAh-59" value="System" style="swimlane;startSize=20;html=1;" parent="19AYfMJwUUPp3SPWDgAh-57" vertex="1">
          <mxGeometry x="175" y="20" width="295" height="920" as="geometry" />
        </mxCell>
        <mxCell id="19AYfMJwUUPp3SPWDgAh-80" value="" style="edgeStyle=orthogonalEdgeStyle;rounded=0;orthogonalLoop=1;jettySize=auto;html=1;" parent="19AYfMJwUUPp3SPWDgAh-59" source="19AYfMJwUUPp3SPWDgAh-72" target="19AYfMJwUUPp3SPWDgAh-79" edge="1">
          <mxGeometry relative="1" as="geometry">
            <Array as="points">
              <mxPoint x="165" y="440" />
            </Array>
          </mxGeometry>
        </mxCell>
        <mxCell id="19AYfMJwUUPp3SPWDgAh-82" value="Password Incorrect" style="edgeLabel;html=1;align=center;verticalAlign=middle;resizable=0;points=[];" parent="19AYfMJwUUPp3SPWDgAh-80" vertex="1" connectable="0">
          <mxGeometry x="0.3971" y="-1" relative="1" as="geometry">
            <mxPoint x="5" y="-48" as="offset" />
          </mxGeometry>
        </mxCell>
        <mxCell id="19AYfMJwUUPp3SPWDgAh-72" value="" style="rhombus;rotation=90;" parent="19AYfMJwUUPp3SPWDgAh-59" vertex="1">
          <mxGeometry x="155" y="312.5" width="30" height="30" as="geometry" />
        </mxCell>
        <mxCell id="19AYfMJwUUPp3SPWDgAh-79" value="Display Error Message" style="rounded=1;whiteSpace=wrap;html=1;" parent="19AYfMJwUUPp3SPWDgAh-59" vertex="1">
          <mxGeometry x="20" y="420" width="120" height="40" as="geometry" />
        </mxCell>
        <mxCell id="19AYfMJwUUPp3SPWDgAh-100" value="" style="edgeStyle=orthogonalEdgeStyle;rounded=0;orthogonalLoop=1;jettySize=auto;html=1;" parent="19AYfMJwUUPp3SPWDgAh-59" source="19AYfMJwUUPp3SPWDgAh-94" target="19AYfMJwUUPp3SPWDgAh-98" edge="1">
          <mxGeometry relative="1" as="geometry" />
        </mxCell>
        <mxCell id="19AYfMJwUUPp3SPWDgAh-101" value="Password Matches" style="edgeLabel;html=1;align=center;verticalAlign=middle;resizable=0;points=[];" parent="19AYfMJwUUPp3SPWDgAh-100" vertex="1" connectable="0">
          <mxGeometry x="-0.3911" y="-1" relative="1" as="geometry">
            <mxPoint x="12" y="-6" as="offset" />
          </mxGeometry>
        </mxCell>
        <mxCell id="19AYfMJwUUPp3SPWDgAh-103" value="" style="edgeStyle=orthogonalEdgeStyle;rounded=0;orthogonalLoop=1;jettySize=auto;html=1;" parent="19AYfMJwUUPp3SPWDgAh-59" source="19AYfMJwUUPp3SPWDgAh-94" target="19AYfMJwUUPp3SPWDgAh-102" edge="1">
          <mxGeometry relative="1" as="geometry" />
        </mxCell>
        <mxCell id="19AYfMJwUUPp3SPWDgAh-104" value="Password Does not Matches" style="edgeLabel;html=1;align=center;verticalAlign=middle;resizable=0;points=[];" parent="19AYfMJwUUPp3SPWDgAh-103" vertex="1" connectable="0">
          <mxGeometry x="0.4023" relative="1" as="geometry">
            <mxPoint as="offset" />
          </mxGeometry>
        </mxCell>
        <mxCell id="19AYfMJwUUPp3SPWDgAh-94" value="" style="rhombus;" parent="19AYfMJwUUPp3SPWDgAh-59" vertex="1">
          <mxGeometry x="5" y="590" width="30" height="30" as="geometry" />
        </mxCell>
        <mxCell id="19AYfMJwUUPp3SPWDgAh-109" value="" style="edgeStyle=orthogonalEdgeStyle;rounded=0;orthogonalLoop=1;jettySize=auto;html=1;" parent="19AYfMJwUUPp3SPWDgAh-59" source="19AYfMJwUUPp3SPWDgAh-98" target="19AYfMJwUUPp3SPWDgAh-108" edge="1">
          <mxGeometry relative="1" as="geometry" />
        </mxCell>
        <mxCell id="19AYfMJwUUPp3SPWDgAh-98" value="Password Succesfully changed" style="rounded=1;whiteSpace=wrap;html=1;" parent="19AYfMJwUUPp3SPWDgAh-59" vertex="1">
          <mxGeometry x="155" y="582.5" width="120" height="45" as="geometry" />
        </mxCell>
        <mxCell id="19AYfMJwUUPp3SPWDgAh-102" value="Display Error Message" style="rounded=1;whiteSpace=wrap;html=1;" parent="19AYfMJwUUPp3SPWDgAh-59" vertex="1">
          <mxGeometry x="5" y="690" width="105" height="30" as="geometry" />
        </mxCell>
        <mxCell id="19AYfMJwUUPp3SPWDgAh-108" value="" style="ellipse;html=1;shape=endState;fillColor=#000000;strokeColor=#000000;" parent="19AYfMJwUUPp3SPWDgAh-59" vertex="1">
          <mxGeometry x="195" y="720" width="30" height="30" as="geometry" />
        </mxCell>
        <mxCell id="19AYfMJwUUPp3SPWDgAh-106" value="" style="edgeStyle=orthogonalEdgeStyle;rounded=0;orthogonalLoop=1;jettySize=auto;html=1;" parent="19AYfMJwUUPp3SPWDgAh-57" source="19AYfMJwUUPp3SPWDgAh-102" target="19AYfMJwUUPp3SPWDgAh-105" edge="1">
          <mxGeometry relative="1" as="geometry" />
        </mxCell>
        <mxCell id="19AYfMJwUUPp3SPWDgAh-110" value="Login the System" style="swimlane;childLayout=stackLayout;resizeParent=1;resizeParentMax=0;startSize=20;html=1;" parent="1" vertex="1">
          <mxGeometry x="60.000000000000455" y="3360" width="410" height="520" as="geometry" />
        </mxCell>
        <mxCell id="19AYfMJwUUPp3SPWDgAh-111" value="User" style="swimlane;startSize=20;html=1;" parent="19AYfMJwUUPp3SPWDgAh-110" vertex="1">
          <mxGeometry y="20" width="170" height="500" as="geometry" />
        </mxCell>
        <mxCell id="19AYfMJwUUPp3SPWDgAh-136" value="" style="edgeStyle=orthogonalEdgeStyle;rounded=0;orthogonalLoop=1;jettySize=auto;html=1;" parent="19AYfMJwUUPp3SPWDgAh-111" source="19AYfMJwUUPp3SPWDgAh-112" target="19AYfMJwUUPp3SPWDgAh-114" edge="1">
          <mxGeometry relative="1" as="geometry" />
        </mxCell>
        <mxCell id="19AYfMJwUUPp3SPWDgAh-112" value="" style="ellipse;html=1;shape=startState;fillColor=#000000;strokeColor=#000000;" parent="19AYfMJwUUPp3SPWDgAh-111" vertex="1">
          <mxGeometry x="74.99999999999955" y="40" width="30" height="30" as="geometry" />
        </mxCell>
        <mxCell id="19AYfMJwUUPp3SPWDgAh-134" value="" style="edgeStyle=orthogonalEdgeStyle;rounded=0;orthogonalLoop=1;jettySize=auto;html=1;" parent="19AYfMJwUUPp3SPWDgAh-111" source="19AYfMJwUUPp3SPWDgAh-114" target="19AYfMJwUUPp3SPWDgAh-116" edge="1">
          <mxGeometry relative="1" as="geometry" />
        </mxCell>
        <mxCell id="19AYfMJwUUPp3SPWDgAh-114" value="Login" style="rounded=1;whiteSpace=wrap;html=1;arcSize=40;fontColor=#000000;fillColor=#FFFFFF;strokeColor=#140000;" parent="19AYfMJwUUPp3SPWDgAh-111" vertex="1">
          <mxGeometry x="29.999999999999545" y="110" width="120" height="40" as="geometry" />
        </mxCell>
        <mxCell id="19AYfMJwUUPp3SPWDgAh-116" value="Input Username and Password" style="rounded=1;whiteSpace=wrap;html=1;arcSize=40;fontColor=#000000;fillColor=#FFFFFF;strokeColor=#140000;" parent="19AYfMJwUUPp3SPWDgAh-111" vertex="1">
          <mxGeometry x="29.999999999999545" y="190" width="120" height="40" as="geometry" />
        </mxCell>
        <mxCell id="19AYfMJwUUPp3SPWDgAh-149" value="View Error Message" style="rounded=1;whiteSpace=wrap;html=1;arcSize=40;fontColor=#000000;fillColor=#FFFFFF;strokeColor=#0A0000;" parent="19AYfMJwUUPp3SPWDgAh-111" vertex="1">
          <mxGeometry x="30" y="350" width="90" height="35" as="geometry" />
        </mxCell>
        <mxCell id="19AYfMJwUUPp3SPWDgAh-151" style="edgeStyle=orthogonalEdgeStyle;rounded=0;orthogonalLoop=1;jettySize=auto;html=1;exitX=0.5;exitY=0;exitDx=0;exitDy=0;entryX=0.367;entryY=1.034;entryDx=0;entryDy=0;entryPerimeter=0;" parent="19AYfMJwUUPp3SPWDgAh-111" source="19AYfMJwUUPp3SPWDgAh-149" target="19AYfMJwUUPp3SPWDgAh-116" edge="1">
          <mxGeometry relative="1" as="geometry" />
        </mxCell>
        <mxCell id="19AYfMJwUUPp3SPWDgAh-120" value="System" style="swimlane;startSize=20;html=1;" parent="19AYfMJwUUPp3SPWDgAh-110" vertex="1">
          <mxGeometry x="170" y="20" width="240" height="500" as="geometry" />
        </mxCell>
        <mxCell id="19AYfMJwUUPp3SPWDgAh-141" value="" style="edgeStyle=orthogonalEdgeStyle;rounded=0;orthogonalLoop=1;jettySize=auto;html=1;" parent="19AYfMJwUUPp3SPWDgAh-120" source="19AYfMJwUUPp3SPWDgAh-138" target="19AYfMJwUUPp3SPWDgAh-140" edge="1">
          <mxGeometry relative="1" as="geometry" />
        </mxCell>
        <mxCell id="19AYfMJwUUPp3SPWDgAh-142" value="Input correct" style="edgeLabel;html=1;align=center;verticalAlign=middle;resizable=0;points=[];" parent="19AYfMJwUUPp3SPWDgAh-141" vertex="1" connectable="0">
          <mxGeometry x="-0.2351" relative="1" as="geometry">
            <mxPoint as="offset" />
          </mxGeometry>
        </mxCell>
        <mxCell id="19AYfMJwUUPp3SPWDgAh-145" value="" style="edgeStyle=orthogonalEdgeStyle;rounded=0;orthogonalLoop=1;jettySize=auto;html=1;" parent="19AYfMJwUUPp3SPWDgAh-120" source="19AYfMJwUUPp3SPWDgAh-138" target="19AYfMJwUUPp3SPWDgAh-144" edge="1">
          <mxGeometry relative="1" as="geometry" />
        </mxCell>
        <mxCell id="19AYfMJwUUPp3SPWDgAh-146" value="Input incorrect" style="edgeLabel;html=1;align=center;verticalAlign=middle;resizable=0;points=[];" parent="19AYfMJwUUPp3SPWDgAh-145" vertex="1" connectable="0">
          <mxGeometry x="0.0466" y="-1" relative="1" as="geometry">
            <mxPoint as="offset" />
          </mxGeometry>
        </mxCell>
        <mxCell id="19AYfMJwUUPp3SPWDgAh-138" value="" style="rhombus;" parent="19AYfMJwUUPp3SPWDgAh-120" vertex="1">
          <mxGeometry x="9.999999999999545" y="260" width="30" height="30" as="geometry" />
        </mxCell>
        <mxCell id="19AYfMJwUUPp3SPWDgAh-148" value="" style="edgeStyle=orthogonalEdgeStyle;rounded=0;orthogonalLoop=1;jettySize=auto;html=1;" parent="19AYfMJwUUPp3SPWDgAh-120" source="19AYfMJwUUPp3SPWDgAh-140" target="19AYfMJwUUPp3SPWDgAh-147" edge="1">
          <mxGeometry relative="1" as="geometry" />
        </mxCell>
        <mxCell id="19AYfMJwUUPp3SPWDgAh-140" value="Access Granded" style="rounded=1;whiteSpace=wrap;html=1;arcSize=40;fontColor=#000000;fillColor=#FFFFFF;strokeColor=#0A0000;" parent="19AYfMJwUUPp3SPWDgAh-120" vertex="1">
          <mxGeometry x="130" y="255" width="90" height="35" as="geometry" />
        </mxCell>
        <mxCell id="19AYfMJwUUPp3SPWDgAh-144" value="Display Error Message" style="rounded=1;whiteSpace=wrap;html=1;arcSize=40;fontColor=#000000;fillColor=#FFFFFF;strokeColor=#0A0000;" parent="19AYfMJwUUPp3SPWDgAh-120" vertex="1">
          <mxGeometry x="10" y="350" width="90" height="35" as="geometry" />
        </mxCell>
        <mxCell id="19AYfMJwUUPp3SPWDgAh-147" value="" style="ellipse;html=1;shape=endState;fillColor=#000000;strokeColor=#000000;" parent="19AYfMJwUUPp3SPWDgAh-120" vertex="1">
          <mxGeometry x="164.99999999999955" y="330" width="30" height="30" as="geometry" />
        </mxCell>
        <mxCell id="19AYfMJwUUPp3SPWDgAh-139" style="edgeStyle=orthogonalEdgeStyle;rounded=0;orthogonalLoop=1;jettySize=auto;html=1;entryX=0.5;entryY=0;entryDx=0;entryDy=0;" parent="19AYfMJwUUPp3SPWDgAh-110" source="19AYfMJwUUPp3SPWDgAh-116" target="19AYfMJwUUPp3SPWDgAh-138" edge="1">
          <mxGeometry relative="1" as="geometry" />
        </mxCell>
        <mxCell id="19AYfMJwUUPp3SPWDgAh-150" value="" style="edgeStyle=orthogonalEdgeStyle;rounded=0;orthogonalLoop=1;jettySize=auto;html=1;" parent="19AYfMJwUUPp3SPWDgAh-110" source="19AYfMJwUUPp3SPWDgAh-144" target="19AYfMJwUUPp3SPWDgAh-149" edge="1">
          <mxGeometry relative="1" as="geometry" />
        </mxCell>
        <mxCell id="19AYfMJwUUPp3SPWDgAh-152" value="Edit Calender" style="swimlane;childLayout=stackLayout;resizeParent=1;resizeParentMax=0;startSize=20;html=1;" parent="1" vertex="1">
          <mxGeometry x="100.00000000000045" y="4440" width="380" height="910" as="geometry" />
        </mxCell>
        <mxCell id="19AYfMJwUUPp3SPWDgAh-153" value="Lectures&amp;nbsp;" style="swimlane;startSize=20;html=1;" parent="19AYfMJwUUPp3SPWDgAh-152" vertex="1">
          <mxGeometry y="20" width="190" height="890" as="geometry" />
        </mxCell>
        <mxCell id="19AYfMJwUUPp3SPWDgAh-154" value="" style="ellipse;html=1;shape=startState;fillColor=#000000;strokeColor=#080000;" parent="19AYfMJwUUPp3SPWDgAh-153" vertex="1">
          <mxGeometry x="79.99999999999955" y="40" width="30" height="30" as="geometry" />
        </mxCell>
        <mxCell id="19AYfMJwUUPp3SPWDgAh-155" value="" style="edgeStyle=orthogonalEdgeStyle;html=1;verticalAlign=bottom;endArrow=open;endSize=8;strokeColor=#000000;rounded=0;" parent="19AYfMJwUUPp3SPWDgAh-153" source="19AYfMJwUUPp3SPWDgAh-154" edge="1">
          <mxGeometry relative="1" as="geometry">
            <mxPoint x="94.99999999999955" y="130" as="targetPoint" />
          </mxGeometry>
        </mxCell>
        <mxCell id="19AYfMJwUUPp3SPWDgAh-156" value="Login" style="rounded=1;whiteSpace=wrap;html=1;arcSize=40;fontColor=#000000;fillColor=#FFFFFF;strokeColor=#080000;" parent="19AYfMJwUUPp3SPWDgAh-153" vertex="1">
          <mxGeometry x="34.999999999999545" y="130" width="120" height="40" as="geometry" />
        </mxCell>
        <mxCell id="19AYfMJwUUPp3SPWDgAh-157" value="" style="edgeStyle=orthogonalEdgeStyle;html=1;verticalAlign=bottom;endArrow=open;endSize=8;strokeColor=#080000;rounded=0;fillColor=#FFFFFF;" parent="19AYfMJwUUPp3SPWDgAh-153" source="19AYfMJwUUPp3SPWDgAh-156" edge="1">
          <mxGeometry relative="1" as="geometry">
            <mxPoint x="94.99999999999955" y="230" as="targetPoint" />
          </mxGeometry>
        </mxCell>
        <mxCell id="19AYfMJwUUPp3SPWDgAh-158" value="Navigate to calender" style="rounded=1;whiteSpace=wrap;html=1;arcSize=40;fontColor=#000000;fillColor=#FFFFFF;strokeColor=#080000;" parent="19AYfMJwUUPp3SPWDgAh-153" vertex="1">
          <mxGeometry x="34.999999999999545" y="230" width="120" height="40" as="geometry" />
        </mxCell>
        <mxCell id="19AYfMJwUUPp3SPWDgAh-159" value="" style="edgeStyle=orthogonalEdgeStyle;html=1;verticalAlign=bottom;endArrow=open;endSize=8;strokeColor=#080000;rounded=0;fillColor=#FFFFFF;" parent="19AYfMJwUUPp3SPWDgAh-153" source="19AYfMJwUUPp3SPWDgAh-158" edge="1">
          <mxGeometry relative="1" as="geometry">
            <mxPoint x="94.99999999999955" y="330" as="targetPoint" />
          </mxGeometry>
        </mxCell>
        <mxCell id="19AYfMJwUUPp3SPWDgAh-160" value="Select Event / Date" style="rounded=1;whiteSpace=wrap;html=1;arcSize=40;fontColor=#000000;fillColor=#FFFFFF;strokeColor=#080000;" parent="19AYfMJwUUPp3SPWDgAh-153" vertex="1">
          <mxGeometry x="34.999999999999545" y="330" width="120" height="40" as="geometry" />
        </mxCell>
        <mxCell id="19AYfMJwUUPp3SPWDgAh-161" value="" style="edgeStyle=orthogonalEdgeStyle;rounded=0;orthogonalLoop=1;jettySize=auto;html=1;" parent="19AYfMJwUUPp3SPWDgAh-153" source="19AYfMJwUUPp3SPWDgAh-162" target="19AYfMJwUUPp3SPWDgAh-163" edge="1">
          <mxGeometry relative="1" as="geometry" />
        </mxCell>
        <mxCell id="19AYfMJwUUPp3SPWDgAh-162" value="Edit Event / Date" style="rounded=1;whiteSpace=wrap;html=1;arcSize=40;fontColor=#000000;fillColor=#FFFFFF;strokeColor=#080000;" parent="19AYfMJwUUPp3SPWDgAh-153" vertex="1">
          <mxGeometry x="34.999999999999545" y="430" width="120" height="40" as="geometry" />
        </mxCell>
        <mxCell id="19AYfMJwUUPp3SPWDgAh-163" value="Select Save Changes" style="rounded=1;whiteSpace=wrap;html=1;arcSize=40;fontColor=#000000;fillColor=#FFFFFF;strokeColor=#080000;" parent="19AYfMJwUUPp3SPWDgAh-153" vertex="1">
          <mxGeometry x="34.999999999999545" y="510" width="120" height="40" as="geometry" />
        </mxCell>
        <mxCell id="19AYfMJwUUPp3SPWDgAh-164" style="edgeStyle=orthogonalEdgeStyle;rounded=0;orthogonalLoop=1;jettySize=auto;html=1;" parent="19AYfMJwUUPp3SPWDgAh-153" edge="1">
          <mxGeometry relative="1" as="geometry">
            <mxPoint x="39.999999999999545" y="450" as="targetPoint" />
            <mxPoint x="39.999999999999545" y="690" as="sourcePoint" />
            <Array as="points">
              <mxPoint x="10" y="685" />
              <mxPoint x="10" y="450" />
            </Array>
          </mxGeometry>
        </mxCell>
        <mxCell id="19AYfMJwUUPp3SPWDgAh-165" value="" style="edgeStyle=orthogonalEdgeStyle;html=1;verticalAlign=bottom;endArrow=open;endSize=8;strokeColor=#080000;rounded=0;fillColor=#FFFFFF;" parent="19AYfMJwUUPp3SPWDgAh-153" edge="1">
          <mxGeometry relative="1" as="geometry">
            <mxPoint x="94.59999999999957" y="430" as="targetPoint" />
            <mxPoint x="94.60000000000002" y="370" as="sourcePoint" />
          </mxGeometry>
        </mxCell>
        <mxCell id="19AYfMJwUUPp3SPWDgAh-166" value="Display Error Message" style="rounded=1;whiteSpace=wrap;html=1;arcSize=40;fontColor=#000000;fillColor=#FFFFFF;strokeColor=#080000;" parent="19AYfMJwUUPp3SPWDgAh-153" vertex="1">
          <mxGeometry x="29.999999999999545" y="665" width="120" height="40" as="geometry" />
        </mxCell>
        <mxCell id="19AYfMJwUUPp3SPWDgAh-167" value="System" style="swimlane;startSize=20;html=1;direction=south;" parent="19AYfMJwUUPp3SPWDgAh-152" vertex="1">
          <mxGeometry x="190" y="20" width="190" height="890" as="geometry" />
        </mxCell>
        <mxCell id="19AYfMJwUUPp3SPWDgAh-168" value="" style="rhombus;" parent="19AYfMJwUUPp3SPWDgAh-167" vertex="1">
          <mxGeometry x="-110.00000000000045" y="595" width="30" height="30" as="geometry" />
        </mxCell>
        <mxCell id="19AYfMJwUUPp3SPWDgAh-169" value="Update Changes" style="rounded=1;whiteSpace=wrap;html=1;arcSize=40;fontColor=#000000;fillColor=#FFFFFF;strokeColor=#080000;" parent="19AYfMJwUUPp3SPWDgAh-167" vertex="1">
          <mxGeometry x="34.999999999999545" y="590" width="120" height="40" as="geometry" />
        </mxCell>
        <mxCell id="19AYfMJwUUPp3SPWDgAh-170" value="Display Error Message" style="rounded=1;whiteSpace=wrap;html=1;arcSize=40;fontColor=#000000;fillColor=#FFFFFF;strokeColor=#080000;" parent="19AYfMJwUUPp3SPWDgAh-167" vertex="1">
          <mxGeometry x="29.999999999999545" y="665" width="120" height="40" as="geometry" />
        </mxCell>
        <mxCell id="19AYfMJwUUPp3SPWDgAh-171" value="" style="edgeStyle=orthogonalEdgeStyle;rounded=0;orthogonalLoop=1;jettySize=auto;html=1;" parent="19AYfMJwUUPp3SPWDgAh-167" source="19AYfMJwUUPp3SPWDgAh-168" target="19AYfMJwUUPp3SPWDgAh-169" edge="1">
          <mxGeometry relative="1" as="geometry" />
        </mxCell>
        <mxCell id="19AYfMJwUUPp3SPWDgAh-172" value="Input Correct" style="edgeLabel;html=1;align=center;verticalAlign=middle;resizable=0;points=[];" parent="19AYfMJwUUPp3SPWDgAh-171" vertex="1" connectable="0">
          <mxGeometry x="-0.1216" y="2" relative="1" as="geometry">
            <mxPoint as="offset" />
          </mxGeometry>
        </mxCell>
        <mxCell id="19AYfMJwUUPp3SPWDgAh-173" style="edgeStyle=orthogonalEdgeStyle;rounded=0;orthogonalLoop=1;jettySize=auto;html=1;entryX=0;entryY=0.75;entryDx=0;entryDy=0;" parent="19AYfMJwUUPp3SPWDgAh-167" source="19AYfMJwUUPp3SPWDgAh-168" target="19AYfMJwUUPp3SPWDgAh-170" edge="1">
          <mxGeometry relative="1" as="geometry">
            <Array as="points">
              <mxPoint x="-95" y="635" />
              <mxPoint x="-25" y="635" />
              <mxPoint x="-25" y="695" />
            </Array>
          </mxGeometry>
        </mxCell>
        <mxCell id="19AYfMJwUUPp3SPWDgAh-174" value="Input Incorrect&amp;nbsp;" style="edgeLabel;html=1;align=center;verticalAlign=middle;resizable=0;points=[];" parent="19AYfMJwUUPp3SPWDgAh-173" vertex="1" connectable="0">
          <mxGeometry x="0.0535" y="-2" relative="1" as="geometry">
            <mxPoint as="offset" />
          </mxGeometry>
        </mxCell>
        <mxCell id="19AYfMJwUUPp3SPWDgAh-175" value="" style="ellipse;html=1;shape=endState;fillColor=#000000;strokeColor=#080000;" parent="19AYfMJwUUPp3SPWDgAh-167" vertex="1">
          <mxGeometry x="109.99999999999955" y="740" width="30" height="30" as="geometry" />
        </mxCell>
        <mxCell id="19AYfMJwUUPp3SPWDgAh-176" style="edgeStyle=orthogonalEdgeStyle;rounded=0;orthogonalLoop=1;jettySize=auto;html=1;entryX=0.667;entryY=0;entryDx=0;entryDy=0;entryPerimeter=0;exitX=1.028;exitY=0.547;exitDx=0;exitDy=0;exitPerimeter=0;" parent="19AYfMJwUUPp3SPWDgAh-167" edge="1">
          <mxGeometry relative="1" as="geometry">
            <mxPoint x="153.35999999999945" y="609.9999999999999" as="sourcePoint" />
            <mxPoint x="139.99999999999932" y="753.1" as="targetPoint" />
            <Array as="points">
              <mxPoint x="160" y="610.12" />
              <mxPoint x="160" y="623.12" />
              <mxPoint x="180" y="623.12" />
              <mxPoint x="180" y="753.12" />
            </Array>
          </mxGeometry>
        </mxCell>
        <mxCell id="19AYfMJwUUPp3SPWDgAh-177" value="" style="edgeStyle=orthogonalEdgeStyle;rounded=0;orthogonalLoop=1;jettySize=auto;html=1;" parent="19AYfMJwUUPp3SPWDgAh-152" source="19AYfMJwUUPp3SPWDgAh-163" target="19AYfMJwUUPp3SPWDgAh-168" edge="1">
          <mxGeometry relative="1" as="geometry" />
        </mxCell>
        <mxCell id="19AYfMJwUUPp3SPWDgAh-178" value="" style="edgeStyle=orthogonalEdgeStyle;rounded=0;orthogonalLoop=1;jettySize=auto;html=1;" parent="19AYfMJwUUPp3SPWDgAh-152" source="19AYfMJwUUPp3SPWDgAh-170" target="19AYfMJwUUPp3SPWDgAh-166" edge="1">
          <mxGeometry relative="1" as="geometry" />
        </mxCell>
      </root>
    </mxGraphModel>
  </diagram>
  <diagram id="ebLph-kN49WxXMH1S6KO" name="Page-2">
    <mxGraphModel dx="1042" dy="615" grid="0" gridSize="10" guides="1" tooltips="1" connect="1" arrows="1" fold="1" page="0" pageScale="1" pageWidth="850" pageHeight="1100" math="0" shadow="0">
      <root>
        <mxCell id="0" />
        <mxCell id="1" parent="0" />
      </root>
    </mxGraphModel>
  </diagram>
</mxfile>
